
<svg width="62" height="69" viewBox="0 0 62 69" fill="none" xmlns="http://www.w3.org/2000/svg">
<path d="M25.422 36.2093V29.2507C25.4221 29.1285 25.3981 29.0075 25.3514 28.8946C25.3046 28.7816 25.2361 28.6791 25.1497 28.5927C25.0633 28.5062 24.9607 28.4377 24.8478 28.391C24.7349 28.3443 24.6139 28.3202 24.4917 28.3203H12.0073C11.7605 28.3203 11.5239 28.4183 11.3494 28.5928C11.1749 28.7673 11.0769 29.0039 11.0769 29.2507V36.2093C11.0769 36.456 11.1749 36.6926 11.3494 36.8671C11.5239 37.0416 11.7605 37.1396 12.0073 37.1396H24.4917C24.6139 37.1397 24.7349 37.1157 24.8478 37.0689C24.9607 37.0222 25.0633 36.9537 25.1497 36.8673C25.2361 36.7809 25.3046 36.6783 25.3514 36.5654C25.3981 36.4525 25.4221 36.3315 25.422 36.2093ZM23.5613 35.2789H12.9376V30.181H23.5613V35.2789Z" fill="url(#paint0_linear)"/>
<path d="M49.9939 28.3203H37.5094C37.3872 28.3202 37.2662 28.3443 37.1533 28.391C37.0404 28.4377 36.9378 28.5062 36.8514 28.5927C36.765 28.6791 36.6965 28.7816 36.6498 28.8946C36.603 29.0075 36.579 29.1285 36.5791 29.2507V36.2093C36.579 36.3315 36.603 36.4525 36.6498 36.5654C36.6965 36.6783 36.765 36.7809 36.8514 36.8673C36.9378 36.9537 37.0404 37.0222 37.1533 37.0689C37.2662 37.1157 37.3872 37.1397 37.5094 37.1396H49.9939C50.2406 37.1396 50.4772 37.0416 50.6517 36.8671C50.8262 36.6926 50.9242 36.456 50.9242 36.2093V29.2507C50.9242 29.0039 50.8262 28.7673 50.6517 28.5928C50.4772 28.4183 50.2406 28.3203 49.9939 28.3203ZM49.0635 35.2789H38.4398V30.181H49.0635V35.2789Z" fill="url(#paint1_linear)"/>
<path d="M31.0005 42.4248C29.944 42.4247 28.9112 42.7379 28.0327 43.3248C27.1542 43.9118 26.4695 44.746 26.0652 45.7221C25.6609 46.6982 25.5551 47.7723 25.7613 48.8085C25.9675 49.8447 26.4763 50.7964 27.2234 51.5434C27.9706 52.2904 28.9224 52.7991 29.9587 53.005C30.9949 53.211 32.069 53.105 33.045 52.7005C34.021 52.296 34.8551 51.6111 35.4419 50.7325C36.0286 49.8539 36.3416 48.8211 36.3413 47.7646C36.3393 46.3488 35.776 44.9916 34.7748 43.9906C33.7736 42.9896 32.4162 42.4265 31.0005 42.4248ZM31.0005 51.2468C30.3121 51.2469 29.6391 51.0428 29.0666 50.6604C28.4941 50.278 28.0479 49.7345 27.7844 49.0985C27.5209 48.4625 27.4519 47.7627 27.5861 47.0874C27.7204 46.4122 28.0518 45.792 28.5386 45.3052C29.0253 44.8183 29.6455 44.4868 30.3207 44.3524C30.9959 44.2181 31.6958 44.287 32.3318 44.5504C32.9678 44.8138 33.5115 45.26 33.8939 45.8324C34.2764 46.4048 34.4806 47.0777 34.4806 47.7662C34.4792 48.6886 34.112 49.5728 33.4597 50.225C32.8073 50.8772 31.9229 51.2441 31.0005 51.2452V51.2468Z" fill="url(#paint2_linear)"/>
<path d="M61.1087 53.2099L58.0651 50.1657C57.4911 49.5936 56.7138 49.2723 55.9034 49.2723C55.093 49.2723 54.3157 49.5936 53.7418 50.1657L52.7976 51.1094L48.6705 46.9807L50.4297 40.7122H50.9082C51.8596 40.711 52.7717 40.3326 53.4444 39.6599C54.1172 38.9871 54.4956 38.075 54.4967 37.1236V28.3362C54.4954 27.6004 54.2682 26.8827 53.8458 26.2803C53.4233 25.6778 52.826 25.2197 52.1347 24.9678V20.4228C52.13 17.1318 50.9699 13.9469 48.8568 11.4239C46.7437 8.90083 43.8118 7.19988 40.5726 6.61781V5.09786C40.5711 3.74639 40.0336 2.45071 39.078 1.49503C38.1224 0.539342 36.8268 0.00168845 35.4753 0L26.5257 0C25.1747 0.00239153 23.8798 0.540355 22.9248 1.49596C21.9698 2.45157 21.4326 3.74685 21.4311 5.09786V6.61781C18.1917 7.19965 15.2596 8.90051 13.1463 11.4236C11.033 13.9466 9.87271 17.1316 9.86799 20.4228V24.9694C9.1769 25.2212 8.57979 25.6791 8.15736 26.2812C7.73492 26.8834 7.50754 27.6007 7.50593 28.3362V37.1236C7.50706 38.075 7.8855 38.9871 8.55824 39.6599C9.23098 40.3326 10.1431 40.711 11.0945 40.7122H11.573L13.3305 46.9807L9.20345 51.1088L8.26086 50.1657C7.68695 49.5936 6.90961 49.2723 6.09922 49.2723C5.28883 49.2723 4.5115 49.5936 3.93759 50.1657L0.893443 53.2093C0.321287 53.7832 0 54.5606 0 55.371C0 56.1814 0.321287 56.9587 0.893443 57.5326L10.5161 67.1552C11.0899 67.7275 11.8673 68.0489 12.6777 68.0489C13.4881 68.0489 14.2655 67.7275 14.8393 67.1552L17.8829 64.1116C18.4551 63.5377 18.7764 62.7604 18.7764 61.95C18.7764 61.1396 18.4551 60.3622 17.8829 59.7883L16.9403 58.8457L20.1328 55.6527C21.6254 56.327 23.2441 56.6765 24.8819 56.6783H37.1228C38.7606 56.6765 40.3794 56.327 41.872 55.6527L45.0618 58.8425L44.1187 59.7857C43.5464 60.3595 43.225 61.1369 43.225 61.9473C43.225 62.7577 43.5464 63.5351 44.1187 64.1089L47.1617 67.1526C47.7356 67.7248 48.5129 68.0462 49.3234 68.0462C50.1338 68.0462 50.9112 67.7248 51.485 67.1526L61.1076 57.5299C61.6789 56.9563 61.9998 56.1797 62 55.3701C62.0002 54.5605 61.6797 53.7838 61.1087 53.2099ZM52.6344 37.1236C52.6338 37.5817 52.4516 38.0208 52.1277 38.3447C51.8038 38.6687 51.3647 38.8509 50.9066 38.8514H36.0644C35.9856 38.8513 35.9071 38.8433 35.8299 38.8275C35.6191 38.7736 35.4233 38.6726 35.2573 38.5319L35.2472 38.5239C35.2201 38.4995 35.1941 38.4708 35.1702 38.441C34.9728 38.2273 34.8647 37.9461 34.8682 37.6553V27.8046C34.8699 27.7466 34.8758 27.6889 34.8857 27.6318C34.9433 27.3505 35.0938 27.0966 35.3129 26.9111C35.532 26.7255 35.8072 26.6189 36.0941 26.6084H50.905C50.9342 26.6084 50.9629 26.6148 50.9911 26.6185L51.1006 26.6323H51.1442C51.5555 26.6893 51.9325 26.8926 52.206 27.2051C52.4794 27.5177 52.631 27.9183 52.6328 28.3335L52.6344 37.1236ZM31.0005 54.8159C29.6057 54.8159 28.2422 54.4023 27.0825 53.6274C25.9228 52.8525 25.0189 51.751 24.4851 50.4624C23.9514 49.1738 23.8118 47.7558 24.0839 46.3878C24.3561 45.0198 25.0278 43.7632 26.0141 42.777C27.0004 41.7907 28.257 41.1191 29.625 40.8471C30.9931 40.575 32.411 40.7148 33.6996 41.2486C34.9882 41.7824 36.0896 42.6864 36.8644 43.8462C37.6393 45.006 38.0528 46.3695 38.0527 47.7643C38.0506 49.634 37.3069 51.4264 35.9848 52.7484C34.6627 54.0704 32.8702 54.814 31.0005 54.8159ZM23.2918 6.40994V5.09786C23.2933 4.24034 23.6345 3.41835 24.2405 2.81169C24.8466 2.20504 25.6682 1.86311 26.5257 1.86073H35.4753C36.3332 1.86241 37.1555 2.20395 37.7621 2.81057C38.3687 3.41718 38.7102 4.23945 38.7119 5.09733V6.4094C38.5088 6.40037 38.3079 6.39558 38.1064 6.39558H23.8947C23.6932 6.39611 23.4922 6.4009 23.2918 6.40994ZM11.7287 20.4228C11.733 17.4448 12.8279 14.5714 14.8066 12.3458C16.7853 10.1201 19.5107 8.69634 22.4678 8.3435C22.7123 8.31479 22.9494 8.29405 23.1823 8.2797H23.1966C23.4322 8.26535 23.6639 8.2579 23.8952 8.2579H38.1064C38.3376 8.2579 38.5689 8.26535 38.8049 8.2797H38.8188C39.0522 8.29405 39.2893 8.31479 39.5338 8.3435C42.4903 8.69683 45.215 10.1208 47.1931 12.3463C49.1712 14.5718 50.2656 17.4447 50.2697 20.4223V24.7487H36.0644C36.0395 24.7484 36.0146 24.7496 35.9899 24.7524C34.6151 24.8444 32.9798 25.9938 33.0075 27.8056V37.6797V37.6909C33.0132 38.2208 33.1579 38.7399 33.4269 39.1965C31.8406 38.7364 30.1562 38.7364 28.5699 39.1965C28.8459 38.7295 28.9915 38.1971 28.9915 37.6547V27.8046C28.9915 27.7785 28.9915 27.7514 28.9883 27.7269V27.7195C28.9659 26.9244 28.6346 26.1693 28.0646 25.6145C27.4947 25.0597 26.731 24.7487 25.9356 24.7477H11.7287V20.4228ZM9.36666 37.1236V28.3362C9.36849 27.921 9.52005 27.5203 9.79349 27.2078C10.0669 26.8953 10.4439 26.6919 10.8552 26.635H10.8983L11.0078 26.6211C11.036 26.6174 11.0647 26.6121 11.0924 26.611H25.8841C26.0483 26.6068 26.2116 26.6358 26.3644 26.6964C26.5171 26.7569 26.6559 26.8477 26.7726 26.9634C26.8893 27.079 26.9813 27.217 27.0433 27.3692C27.1052 27.5213 27.1357 27.6845 27.1329 27.8487V37.6186C27.1123 37.9316 26.9968 38.231 26.8017 38.4766L26.7953 38.4846C26.7629 38.5167 26.7284 38.5468 26.6921 38.5745C26.5597 38.6808 26.4073 38.7596 26.244 38.8062C26.1437 38.8332 26.0405 38.8483 25.9367 38.8514H11.0945C10.6364 38.8509 10.1973 38.6687 9.87335 38.3447C9.54944 38.0208 9.36722 37.5817 9.36666 37.1236ZM16.5639 62.7942L13.5203 65.8378C13.2924 66.0554 12.9894 66.1768 12.6742 66.1768C12.3591 66.1768 12.0561 66.0554 11.8281 65.8378L2.20871 56.2152C1.98461 55.9906 1.85875 55.6864 1.85875 55.3691C1.85875 55.0519 1.98461 54.7476 2.20871 54.523L5.2518 51.4805C5.47649 51.2566 5.78073 51.1309 6.0979 51.1309C6.41506 51.1309 6.7193 51.2566 6.94399 51.4805L16.5666 61.1031C16.7902 61.3279 16.9154 61.6321 16.9149 61.9492C16.9144 62.2662 16.7882 62.5701 16.5639 62.7942ZM18.4273 54.7224L15.6208 57.5283L10.5171 52.4246L13.935 49.0089C14.7977 51.3365 16.3689 53.3349 18.4273 54.7224ZM24.8782 54.8159C23.2184 54.8137 21.5867 54.3871 20.1381 53.5767C17.8616 52.3034 16.1802 50.1825 15.4597 47.6755L15.3763 47.3783L13.5039 40.7122H25.572C24.4885 41.5409 23.6106 42.6082 23.0063 43.8312C22.402 45.0542 22.0877 46.3999 22.0877 47.764C22.0877 49.1282 22.402 50.4739 23.0063 51.6969C23.6106 52.9199 24.4885 53.9872 25.572 54.8159H24.8782ZM36.4301 54.8159C37.5136 53.9872 38.3916 52.9199 38.9958 51.6969C39.6001 50.4739 39.9144 49.1282 39.9144 47.764C39.9144 46.3999 39.6001 45.0542 38.9958 43.8312C38.3916 42.6082 37.5136 41.5409 36.4301 40.7122H48.4983L46.6269 47.3773L46.5434 47.6745C45.9594 49.725 44.7248 51.5302 43.0257 52.8182C41.3266 54.1061 39.2549 54.8071 37.1228 54.8154L36.4301 54.8159ZM43.5737 54.7224C45.6294 53.3319 47.1999 51.3346 48.066 49.0089L51.4823 52.4246L46.3786 57.5283L43.5737 54.7224ZM59.7929 56.2173L50.1703 65.8399C49.9423 66.0574 49.6394 66.1787 49.3244 66.1787C49.0094 66.1787 48.7065 66.0574 48.4786 65.8399L45.4355 62.7963C45.2114 62.5719 45.0856 62.2677 45.0856 61.9505C45.0856 61.6333 45.2114 61.3291 45.4355 61.1047L55.0581 51.482C55.2828 51.2582 55.5871 51.1325 55.9042 51.1325C56.2214 51.1325 56.5256 51.2582 56.7503 51.482L59.7929 54.5251C60.017 54.7497 60.1428 55.054 60.1428 55.3712C60.1428 55.6885 60.017 55.9928 59.7929 56.2173Z" fill="url(#paint3_linear)"/>
<defs>
<linearGradient id="paint0_linear" x1="18.2495" y1="28.3203" x2="18.2495" y2="37.1396" gradientUnits="userSpaceOnUse">
<stop stop-color="#0C956C"/>
<stop offset="1" stop-color="#0632CF"/>
</linearGradient>
<linearGradient id="paint1_linear" x1="43.7516" y1="28.3203" x2="43.7516" y2="37.1396" gradientUnits="userSpaceOnUse">
<stop stop-color="#0C956C"/>
<stop offset="1" stop-color="#0632CF"/>
</linearGradient>
<linearGradient id="paint2_linear" x1="30.9999" y1="42.4248" x2="30.9999" y2="53.1075" gradientUnits="userSpaceOnUse">
<stop stop-color="#0C956C"/>
<stop offset="1" stop-color="#0632CF"/>
</linearGradient>
<linearGradient id="paint3_linear" x1="31" y1="0" x2="31" y2="68.0489" gradientUnits="userSpaceOnUse">
<stop stop-color="#0C956C"/>
<stop offset="1" stop-color="#0632CF"/>
</linearGradient>
</defs>
</svg>
