<svg width="65" height="65" viewBox="0 0 65 65" fill="none" xmlns="http://www.w3.org/2000/svg">
<path d="M63.8953 62.7932H60.2425V6.82636C60.2424 6.5341 60.1262 6.25387 59.9195 6.04721C59.7129 5.84056 59.4326 5.72438 59.1404 5.72422H47.1402V1.10214C47.1402 0.809837 47.0241 0.529502 46.8174 0.32281C46.6107 0.116118 46.3304 0 46.0381 0C45.7458 0 45.4655 0.116118 45.2588 0.32281C45.0521 0.529502 44.936 0.809837 44.936 1.10214V5.72422H34.0405V1.10214C34.0398 0.810273 33.9234 0.530586 33.7168 0.324438C33.5102 0.118291 33.2302 0.00251824 32.9383 0.002519H5.8571C5.56485 0.00268586 5.28461 0.118858 5.07796 0.325514C4.8713 0.53217 4.75513 0.812407 4.75496 1.10466V62.7932H1.10214C0.809837 62.7932 0.529503 62.9093 0.322811 63.116C0.116119 63.3227 0 63.603 0 63.8953C0 64.1876 0.116119 64.468 0.322811 64.6747C0.529503 64.8814 0.809837 64.9975 1.10214 64.9975H63.8979C64.1902 64.9975 64.4705 64.8814 64.6772 64.6747C64.8839 64.468 65 64.1876 65 63.8953C65 63.603 64.8839 63.3227 64.6772 63.116C64.4705 62.9093 64.1902 62.7932 63.8979 62.7932H63.8953ZM58.0382 7.92598V62.7932H52.7769V16.5863C52.7769 16.294 52.6608 16.0137 52.4541 15.807C52.2474 15.6003 51.9671 15.4842 51.6748 15.4842H34.0405V7.92661L58.0382 7.92598ZM32.9327 17.6878H50.5726V62.7932H27.7413V17.6885L32.9327 17.6878ZM6.95799 2.20681H31.8349V15.4842H26.6404C26.3481 15.4843 26.0679 15.6005 25.8612 15.8072C25.6546 16.0138 25.5384 16.2941 25.5382 16.5863V62.7932H6.95925L6.95799 2.20681Z" fill="url(#paint0_linear)"/>
<path d="M12.1342 12.189H26.6403C26.7849 12.1889 26.9282 12.1603 27.0618 12.1049C27.1954 12.0495 27.3168 11.9683 27.419 11.8659C27.5212 11.7636 27.6023 11.6421 27.6576 11.5084C27.7128 11.3747 27.7412 11.2315 27.7412 11.0868V6.82626C27.7412 6.53396 27.625 6.25362 27.4184 6.04693C27.2117 5.84024 26.9313 5.72412 26.639 5.72412H12.1342C11.8419 5.72412 11.5615 5.84024 11.3549 6.04693C11.1482 6.25362 11.032 6.53396 11.032 6.82626V11.0868C11.032 11.2316 11.0604 11.3749 11.1158 11.5087C11.1711 11.6425 11.2523 11.764 11.3547 11.8664C11.457 11.9687 11.5786 12.0499 11.7123 12.1053C11.8461 12.1606 11.9894 12.1891 12.1342 12.189ZM13.2363 7.92841H25.5369V9.98469H13.2363V7.92841Z" fill="url(#paint1_linear)"/>
<path d="M19.3869 15.4839H12.1342C11.8419 15.4839 11.5615 15.6 11.3549 15.8067C11.1482 16.0134 11.032 16.2937 11.032 16.586V20.8485C11.032 20.9932 11.0604 21.1366 11.1158 21.2704C11.1711 21.4041 11.2523 21.5257 11.3547 21.628C11.457 21.7304 11.5786 21.8115 11.7123 21.8669C11.8461 21.9223 11.9894 21.9507 12.1342 21.9506H19.3869C19.6792 21.9506 19.9596 21.8345 20.1663 21.6278C20.3729 21.4211 20.4891 21.1408 20.4891 20.8485V16.586C20.4889 16.2938 20.3727 16.0135 20.1661 15.8069C19.9594 15.6002 19.6792 15.4841 19.3869 15.4839ZM18.2848 19.7445H13.2363V17.6882H18.2848V19.7445Z" fill="url(#paint2_linear)"/>
<path d="M19.3869 25.2446H12.1342C11.8419 25.2446 11.5615 25.3607 11.3549 25.5674C11.1482 25.7741 11.032 26.0545 11.032 26.3468V30.6067C11.032 30.7515 11.0604 30.8948 11.1158 31.0286C11.1711 31.1623 11.2523 31.2839 11.3547 31.3862C11.457 31.4886 11.5786 31.5698 11.7123 31.6251C11.8461 31.6805 11.9894 31.7089 12.1342 31.7089H19.3869C19.6792 31.7089 19.9596 31.5927 20.1663 31.386C20.3729 31.1794 20.4891 30.899 20.4891 30.6067V26.3468C20.4889 26.0545 20.3727 25.7743 20.1661 25.5676C19.9594 25.361 19.6792 25.2448 19.3869 25.2446ZM18.2848 29.5046H13.2363V27.4489H18.2848V29.5046Z" fill="url(#paint3_linear)"/>
<path d="M19.3869 35.0054H12.1342C11.9894 35.0053 11.8461 35.0337 11.7123 35.0891C11.5786 35.1445 11.457 35.2256 11.3547 35.328C11.2523 35.4304 11.1711 35.5519 11.1158 35.6856C11.0604 35.8194 11.032 35.9628 11.032 36.1075V40.3675C11.032 40.5122 11.0604 40.6556 11.1158 40.7893C11.1711 40.9231 11.2523 41.0446 11.3547 41.147C11.457 41.2493 11.5786 41.3305 11.7123 41.3859C11.8461 41.4412 11.9894 41.4697 12.1342 41.4696H19.3869C19.6792 41.4696 19.9596 41.3535 20.1663 41.1468C20.3729 40.9401 20.4891 40.6598 20.4891 40.3675V36.1075C20.4891 35.8152 20.3729 35.5349 20.1663 35.3282C19.9596 35.1215 19.6792 35.0054 19.3869 35.0054ZM18.2848 39.2653H13.2363V37.2097H18.2848V39.2653Z" fill="url(#paint4_linear)"/>
<path d="M19.3869 44.7651H12.1342C11.9894 44.7651 11.8461 44.7935 11.7123 44.8489C11.5786 44.9042 11.457 44.9854 11.3547 45.0878C11.2523 45.1901 11.1711 45.3117 11.1158 45.4454C11.0604 45.5792 11.032 45.7225 11.032 45.8673V50.1272C11.032 50.272 11.0604 50.4153 11.1158 50.5491C11.1711 50.6828 11.2523 50.8044 11.3547 50.9067C11.457 51.0091 11.5786 51.0903 11.7123 51.1456C11.8461 51.201 11.9894 51.2294 12.1342 51.2294H19.3869C19.6792 51.2294 19.9596 51.1132 20.1663 50.9066C20.3729 50.6999 20.4891 50.4195 20.4891 50.1272V45.8673C20.4891 45.575 20.3729 45.2946 20.1663 45.0879C19.9596 44.8813 19.6792 44.7651 19.3869 44.7651ZM18.2848 49.0251H13.2363V46.9694H18.2848V49.0251Z" fill="url(#paint5_linear)"/>
<path d="M32.4975 27.8816H37.0636C37.3559 27.8816 37.6362 27.7655 37.8429 27.5588C38.0496 27.3521 38.1657 27.0718 38.1657 26.7795V22.2135C38.1657 21.9212 38.0496 21.6408 37.8429 21.4341C37.6362 21.2274 37.3559 21.1113 37.0636 21.1113H32.4975C32.2052 21.1113 31.9249 21.2274 31.7182 21.4341C31.5115 21.6408 31.3954 21.9212 31.3954 22.2135V26.7795C31.3954 27.0718 31.5115 27.3521 31.7182 27.5588C31.9249 27.7655 32.2052 27.8816 32.4975 27.8816ZM33.5997 23.3156H35.9614V25.6774H33.5997V23.3156Z" fill="url(#paint6_linear)"/>
<path d="M41.4721 27.8816H46.0381C46.3304 27.8816 46.6107 27.7655 46.8174 27.5588C47.0241 27.3521 47.1402 27.0718 47.1402 26.7795V22.2135C47.1402 21.9212 47.0241 21.6408 46.8174 21.4341C46.6107 21.2274 46.3304 21.1113 46.0381 21.1113H41.4721C41.1798 21.1113 40.8994 21.2274 40.6927 21.4341C40.4861 21.6408 40.3699 21.9212 40.3699 22.2135V26.7795C40.3699 27.0718 40.4861 27.3521 40.6927 27.5588C40.8994 27.7655 41.1798 27.8816 41.4721 27.8816ZM42.5742 23.3156H44.936V25.6774H42.5742V23.3156Z" fill="url(#paint7_linear)"/>
<path d="M32.4975 37.2093H37.0636C37.3558 37.2091 37.636 37.0929 37.8427 36.8863C38.0494 36.6796 38.1655 36.3994 38.1657 36.1071V31.5411C38.1657 31.2488 38.0496 30.9685 37.8429 30.7618C37.6362 30.5551 37.3559 30.439 37.0636 30.439H32.4975C32.2052 30.439 31.9249 30.5551 31.7182 30.7618C31.5115 30.9685 31.3954 31.2488 31.3954 31.5411V36.1071C31.3956 36.3994 31.5117 36.6796 31.7184 36.8863C31.925 37.0929 32.2053 37.2091 32.4975 37.2093ZM33.5997 32.6432H35.9614V35.005H33.5997V32.6432Z" fill="url(#paint8_linear)"/>
<path d="M41.4721 37.2093H46.0381C46.3304 37.2091 46.6106 37.0929 46.8172 36.8863C47.0239 36.6796 47.1401 36.3994 47.1402 36.1071V31.5411C47.1402 31.2488 47.0241 30.9685 46.8174 30.7618C46.6107 30.5551 46.3304 30.439 46.0381 30.439H41.4721C41.1798 30.439 40.8994 30.5551 40.6927 30.7618C40.4861 30.9685 40.3699 31.2488 40.3699 31.5411V36.1071C40.3701 36.3994 40.4863 36.6796 40.6929 36.8863C40.8996 37.0929 41.1798 37.2091 41.4721 37.2093ZM42.5742 32.6432H44.936V35.005H42.5742V32.6432Z" fill="url(#paint9_linear)"/>
<path d="M32.4975 46.5369H37.0636C37.3559 46.5369 37.6362 46.4208 37.8429 46.2141C38.0496 46.0074 38.1657 45.7271 38.1657 45.4348V40.8687C38.1657 40.5764 38.0496 40.2961 37.8429 40.0894C37.6362 39.8827 37.3559 39.7666 37.0636 39.7666H32.4975C32.2052 39.7666 31.9249 39.8827 31.7182 40.0894C31.5115 40.2961 31.3954 40.5764 31.3954 40.8687V45.4348C31.3954 45.7271 31.5115 46.0074 31.7182 46.2141C31.9249 46.4208 32.2052 46.5369 32.4975 46.5369ZM33.5997 41.9709H35.9614V44.3326H33.5997V41.9709Z" fill="url(#paint10_linear)"/>
<path d="M41.4721 46.5369H46.0381C46.3304 46.5369 46.6107 46.4208 46.8174 46.2141C47.0241 46.0074 47.1402 45.7271 47.1402 45.4348V40.8687C47.1402 40.5764 47.0241 40.2961 46.8174 40.0894C46.6107 39.8827 46.3304 39.7666 46.0381 39.7666H41.4721C41.1798 39.7666 40.8994 39.8827 40.6927 40.0894C40.4861 40.2961 40.3699 40.5764 40.3699 40.8687V45.4348C40.3699 45.7271 40.4861 46.0074 40.6927 46.2141C40.8994 46.4208 41.1798 46.5369 41.4721 46.5369ZM42.5742 41.9709H44.936V44.3326H42.5742V41.9709Z" fill="url(#paint11_linear)"/>
<path d="M32.4975 55.865H37.0636C37.3559 55.8649 37.6362 55.7486 37.8429 55.5418C38.0496 55.335 38.1657 55.0546 38.1657 54.7623V50.1969C38.1657 49.9046 38.0496 49.6242 37.8429 49.4175C37.6362 49.2108 37.3559 49.0947 37.0636 49.0947H32.4975C32.2052 49.0947 31.9249 49.2108 31.7182 49.4175C31.5115 49.6242 31.3954 49.9046 31.3954 50.1969V54.7629C31.3956 55.0551 31.5117 55.3354 31.7184 55.542C31.925 55.7487 32.2053 55.8649 32.4975 55.865ZM33.5997 51.299H35.9614V53.6607H33.5997V51.299Z" fill="url(#paint12_linear)"/>
<path d="M41.4721 55.865H46.0381C46.3304 55.8649 46.6106 55.7487 46.8172 55.542C47.0239 55.3354 47.1401 55.0551 47.1402 54.7629V50.1969C47.1402 49.9046 47.0241 49.6242 46.8174 49.4175C46.6107 49.2108 46.3304 49.0947 46.0381 49.0947H41.4721C41.1798 49.0947 40.8994 49.2108 40.6927 49.4175C40.4861 49.6242 40.3699 49.9046 40.3699 50.1969V54.7629C40.3701 55.0551 40.4863 55.3354 40.6929 55.542C40.8996 55.7487 41.1798 55.8649 41.4721 55.865ZM42.5742 51.2984H44.936V53.6607H42.5742V51.2984Z" fill="url(#paint13_linear)"/>
<defs>
<linearGradient id="paint0_linear" x1="32.5" y1="0" x2="32.5" y2="64.9975" gradientUnits="userSpaceOnUse">
<stop stop-color="#0B8A76"/>
<stop offset="1" stop-color="#0745BC"/>
</linearGradient>
<linearGradient id="paint1_linear" x1="19.3866" y1="5.72412" x2="19.3866" y2="12.189" gradientUnits="userSpaceOnUse">
<stop stop-color="#0B8A76"/>
<stop offset="1" stop-color="#0745BC"/>
</linearGradient>
<linearGradient id="paint2_linear" x1="15.7606" y1="15.4839" x2="15.7606" y2="21.9506" gradientUnits="userSpaceOnUse">
<stop stop-color="#0B8A76"/>
<stop offset="1" stop-color="#0745BC"/>
</linearGradient>
<linearGradient id="paint3_linear" x1="15.7606" y1="25.2446" x2="15.7606" y2="31.7089" gradientUnits="userSpaceOnUse">
<stop stop-color="#0B8A76"/>
<stop offset="1" stop-color="#0745BC"/>
</linearGradient>
<linearGradient id="paint4_linear" x1="15.7606" y1="35.0054" x2="15.7606" y2="41.4696" gradientUnits="userSpaceOnUse">
<stop stop-color="#0B8A76"/>
<stop offset="1" stop-color="#0745BC"/>
</linearGradient>
<linearGradient id="paint5_linear" x1="15.7606" y1="44.7651" x2="15.7606" y2="51.2294" gradientUnits="userSpaceOnUse">
<stop stop-color="#0B8A76"/>
<stop offset="1" stop-color="#0745BC"/>
</linearGradient>
<linearGradient id="paint6_linear" x1="34.7805" y1="21.1113" x2="34.7805" y2="27.8816" gradientUnits="userSpaceOnUse">
<stop stop-color="#0B8A76"/>
<stop offset="1" stop-color="#0745BC"/>
</linearGradient>
<linearGradient id="paint7_linear" x1="43.7551" y1="21.1113" x2="43.7551" y2="27.8816" gradientUnits="userSpaceOnUse">
<stop stop-color="#0B8A76"/>
<stop offset="1" stop-color="#0745BC"/>
</linearGradient>
<linearGradient id="paint8_linear" x1="34.7805" y1="30.439" x2="34.7805" y2="37.2093" gradientUnits="userSpaceOnUse">
<stop stop-color="#0B8A76"/>
<stop offset="1" stop-color="#0745BC"/>
</linearGradient>
<linearGradient id="paint9_linear" x1="43.7551" y1="30.439" x2="43.7551" y2="37.2093" gradientUnits="userSpaceOnUse">
<stop stop-color="#0B8A76"/>
<stop offset="1" stop-color="#0745BC"/>
</linearGradient>
<linearGradient id="paint10_linear" x1="34.7805" y1="39.7666" x2="34.7805" y2="46.5369" gradientUnits="userSpaceOnUse">
<stop stop-color="#0B8A76"/>
<stop offset="1" stop-color="#0745BC"/>
</linearGradient>
<linearGradient id="paint11_linear" x1="43.7551" y1="39.7666" x2="43.7551" y2="46.5369" gradientUnits="userSpaceOnUse">
<stop stop-color="#0B8A76"/>
<stop offset="1" stop-color="#0745BC"/>
</linearGradient>
<linearGradient id="paint12_linear" x1="34.7805" y1="49.0947" x2="34.7805" y2="55.865" gradientUnits="userSpaceOnUse">
<stop stop-color="#0B8A76"/>
<stop offset="1" stop-color="#0745BC"/>
</linearGradient>
<linearGradient id="paint13_linear" x1="43.7551" y1="49.0947" x2="43.7551" y2="55.865" gradientUnits="userSpaceOnUse">
<stop stop-color="#0B8A76"/>
<stop offset="1" stop-color="#0745BC"/>
</linearGradient>
</defs>
</svg>
