<svg width="19" height="20" viewBox="0 0 19 20" fill="none" xmlns="http://www.w3.org/2000/svg">
<path d="M14.4448 13.4983C13.8241 12.8883 13.0492 12.8883 12.4324 13.4983C11.9619 13.9627 11.4914 14.4272 11.0288 14.8995C10.9023 15.0293 10.7956 15.0569 10.6414 14.9703C10.3369 14.805 10.0127 14.6712 9.72015 14.4901C8.35612 13.6361 7.21349 12.538 6.20134 11.3021C5.69922 10.6881 5.25245 10.0309 4.94011 9.29092C4.87685 9.14136 4.88871 9.04297 5.01127 8.92096C5.48176 8.46834 5.9404 8.00391 6.40298 7.53949C7.04744 6.89402 7.04744 6.13834 6.39903 5.48893C6.03133 5.11896 5.66364 4.75687 5.29594 4.3869C4.91638 4.00907 4.54078 3.62729 4.15727 3.25339C3.53653 2.65121 2.76161 2.65121 2.14482 3.25733C1.67038 3.72175 1.2157 4.19798 0.733347 4.65454C0.286576 5.07567 0.061214 5.59126 0.0137693 6.19344C-0.0613514 7.17346 0.179826 8.09837 0.519846 8.99967C1.2157 10.8652 2.2753 12.5222 3.56026 14.0414C5.29594 16.0959 7.36769 17.7214 9.79132 18.8943C10.8825 19.4217 12.0133 19.8271 13.2429 19.894C14.089 19.9412 14.8244 19.7287 15.4135 19.0714C15.8168 18.6227 16.2715 18.2134 16.6985 17.7844C17.3311 17.1468 17.335 16.3754 16.7064 15.7457C15.9552 14.9939 15.2 14.2461 14.4448 13.4983Z" fill="#4DE1FF"/>
<path d="M13.6896 10.3614L15.1486 10.1134C14.9192 8.77918 14.2867 7.57088 13.3259 6.61054C12.3098 5.59904 11.0248 4.96144 9.6094 4.76465L9.40381 6.22484C10.499 6.37833 11.4953 6.87031 12.2821 7.65353C13.0254 8.39347 13.5117 9.33019 13.6896 10.3614Z" fill="#4DE1FF"/>
<path d="M15.9712 4.04839C14.2869 2.37173 12.1558 1.313 9.80336 0.986328L9.59777 2.44651C11.63 2.72989 13.4724 3.64694 14.9274 5.09138C16.3072 6.46498 17.2126 8.20067 17.5408 10.1095L18.9997 9.86158C18.6162 7.64966 17.5685 5.64239 15.9712 4.04839Z" fill="#4DE1FF"/>
</svg>
