<svg width="71" height="71" fill="none" xmlns="http://www.w3.org/2000/svg">
  <g clip-path="url(#clip0)">
    <path fill="url(#paint0_radial)" d="M0 0h71v71H0z"/>
    <path d="M34.779 33.74c-.721.801-4.334 4.928-4.334 7.43a5.054 5.054 0 1010.109 0c0-2.502-3.61-6.629-4.334-7.43a1.002 1.002 0 00-1.441 0zm.721 10.542a3.117 3.117 0 01-3.113-3.113c0-1.109 1.642-3.515 3.113-5.292 1.471 1.774 3.113 4.182 3.113 5.292a3.116 3.116 0 01-3.113 3.113z" fill="url(#paint1_linear)"/>
    <path d="M70.03 19.6h-4.581v-2.588a2.082 2.082 0 00-2.08-2.08h-3.421a2.083 2.083 0 00-2.08 2.08V19.6H46.299v-4.138h1.681a.97.97 0 00.971-.97v-3.907h9.661a.97.97 0 00.97-.97V.97a.97.97 0 00-.97-.971H12.388a.97.97 0 00-.97.97v8.644a.971.971 0 00.97.971h9.66v3.907a.971.971 0 00.972.97h1.68V50.2H13.133v-2.59a2.083 2.083 0 00-2.08-2.08h-3.42a2.082 2.082 0 00-2.08 2.08v2.59H.97a.97.97 0 00-.971.97v7.905a.97.97 0 00.97.97h4.581v2.59a2.083 2.083 0 002.08 2.08h3.421a2.083 2.083 0 002.08-2.08v-2.59h11.569v5.548A5.414 5.414 0 0030.109 71h10.782a5.414 5.414 0 005.408-5.408V29.446h11.569v2.588a2.083 2.083 0 002.08 2.08h3.42a2.082 2.082 0 002.08-2.08v-2.588h4.581a.969.969 0 00.971-.97V20.57a.97.97 0 00-.97-.97zM13.357 1.941h44.284v6.703H13.358V1.94zm10.632 8.644h23.02v2.936H23.99v-2.936zM1.941 58.102v-5.961h3.61v5.962h-3.61zm9.25 4.53a.14.14 0 01-.139.139h-3.42a.139.139 0 01-.14-.139V47.609a.139.139 0 01.14-.138h3.42a.14.14 0 01.139.138v15.023zm1.941-10.491h2.434v5.962h-2.434v-5.962zm4.375 5.962v-5.962h2.82v5.962h-2.82zm4.76 0v-5.962h2.434v5.962h-2.433zm22.09 7.489a3.47 3.47 0 01-3.466 3.467H30.109a3.47 3.47 0 01-3.467-3.467v-50.13h17.716v50.13zm1.942-44.05h2.433v5.963H46.3v-5.963zm4.374 5.963v-5.963h2.82v5.963h-2.82zm4.761 0v-5.963h2.434v5.963h-2.434zm8.073 4.53a.139.139 0 01-.138.138h-3.421a.139.139 0 01-.139-.139V17.012a.139.139 0 01.139-.139h3.42a.138.138 0 01.14.139v15.022zm5.552-4.53h-3.61v-5.963h3.61v5.963z" fill="url(#paint2_linear)"/>
  </g>
  <defs>
    <linearGradient id="paint1_linear" x1="35.499" y1="33.435" x2="35.499" y2="46.224" gradientUnits="userSpaceOnUse">
      <stop stop-color="#0B8A76"/>
      <stop offset="1" stop-color="#0746BB"/>
    </linearGradient>
    <linearGradient id="paint2_linear" x1="35.5" y1="0" x2="35.5" y2="71" gradientUnits="userSpaceOnUse">
      <stop stop-color="#0B8A76"/>
      <stop offset="1" stop-color="#0746BB"/>
    </linearGradient>
    <radialGradient id="paint0_radial" cx="0" cy="0" r="1" gradientUnits="userSpaceOnUse" gradientTransform="rotate(90 0 35.5) scale(35.5)">
      <stop stop-color="#E5E5E5"/>
      <stop offset="1" stop-color="#E5E5E5" stop-opacity="0"/>
    </radialGradient>
    <clipPath id="clip0">
      <path fill="#fff" d="M0 0h71v71H0z"/>
    </clipPath>
  </defs>
</svg>
